<svg width="288" height="273" xmlns="http://www.w3.org/2000/svg" version="1.1" xml:space="preserve">
 <g>
  <title>Layer 1</title>
     <g id="Character_1_">
   <g id="svg_1">
    <g id="svg_2">
     <path d="m208.577,163.578l-85.339,0c-1.609,0 -2.926,-1.317 -2.926,-2.926l0,-3.365c0,-1.609 1.317,-2.926 2.926,-2.926l85.339,0c1.609,0 2.926,1.317 2.926,2.926l0,3.365c0,1.61 -1.317,2.926 -2.926,2.926z" fill="#263238" id="svg_3"/>
        <g id="svg_4">
      <polygon points="207.76199340820312,266.2409973144531 211.50299072265625,266.2409973144531 207.19699096679688,163.5780029296875 202.02099609375,163.5780029296875 " fill="#407BFF" id="svg_5"/>
            <polygon points="207.76199340820312,266.2409973144531 211.50299072265625,266.2409973144531 207.19699096679688,163.5780029296875 202.02099609375,163.5780029296875 " opacity="0.6" fill="#FFFFFF" id="svg_6"/>
     </g>
        <g id="svg_7">
      <polygon points="173.32699584960938,266.2409973144531 169.58599853515625,266.2409973144531 173.89199829101562,163.5780029296875 179.0679931640625,163.5780029296875 " fill="#407BFF" id="svg_8"/>
            <polygon points="173.32699584960938,266.2409973144531 169.58599853515625,266.2409973144531 173.89199829101562,163.5780029296875 179.0679931640625,163.5780029296875 " opacity="0.6" fill="#FFFFFF" id="svg_9"/>
     </g>
        <g id="svg_10">
      <polygon points="158.48800659179688,266.2409973144531 162.22900390625,266.2409973144531 157.92300415039062,163.5780029296875 152.74700927734375,163.5780029296875 " fill="#407BFF" id="svg_11"/>
            <polygon points="158.48800659179688,266.2409973144531 162.22900390625,266.2409973144531 157.92300415039062,163.5780029296875 152.74700927734375,163.5780029296875 " opacity="0.6" fill="#FFFFFF" id="svg_12"/>
     </g>
        <g id="svg_13">
      <polygon points="124.05299377441406,266.2409973144531 120.31300354003906,266.2409973144531 124.61799621582031,163.5780029296875 129.79400634765625,163.5780029296875 " fill="#407BFF" id="svg_14"/>
            <polygon points="124.05299377441406,266.2409973144531 120.31300354003906,266.2409973144531 124.61799621582031,163.5780029296875 129.79400634765625,163.5780029296875 " opacity="0.6" fill="#FFFFFF" id="svg_15"/>
     </g>
        <g opacity="0.3" id="svg_16">
      <polygon points="207.20001220703125,163.57501220703125 202.01800537109375,163.57501220703125 202.260009765625,167.93899536132812 207.38400268554688,167.93899536132812 " fill="#407BFF" id="svg_17"/>
            <polygon points="173.70999145507812,167.93899536132812 178.82501220703125,167.93899536132812 179.06600952148438,163.57501220703125 173.89401245117188,163.57501220703125 " fill="#407BFF" id="svg_18"/>
            <polygon points="152.74899291992188,163.57501220703125 152.99099731445312,167.93899536132812 158.10598754882812,167.93899536132812 157.9219970703125,163.57501220703125 " fill="#407BFF" id="svg_19"/>
            <polygon points="124.43099975585938,167.93899536132812 129.55599975585938,167.93899536132812 129.79800415039062,163.57501220703125 124.61500549316406,163.57501220703125 " fill="#407BFF" id="svg_20"/>
     </g>
    </g>
       <g id="svg_21">
     <g id="svg_22">
      <g id="svg_23">
       <g id="svg_24">
        <g id="svg_25">
         <polygon points="156.08499145507812,251.15399169921875 147.61599731445312,255.6510009765625 134.2830047607422,237.63900756835938 142.7519989013672,233.14300537109375 " fill="#FFB573" id="svg_26"/>
            <path d="m144.564,252.872l8.835,-6.144c0.322,-0.224 0.719,-0.169 0.957,0.132l5.289,6.693c0.549,0.694 0.345,1.854 -0.404,2.356c-3.113,2.086 -4.516,2.814 -8.586,5.23c-2.504,1.486 -8.507,5.011 -12.195,6.614c-3.606,1.568 -5.168,-2.09 -3.748,-3.098c3.363,-2.387 7.825,-7.068 8.833,-10.356c0.183,-0.594 0.549,-1.099 1.019,-1.427z" fill="#263238" id="svg_27"/>
            <g id="svg_28">
          <polygon points="142.75799560546875,233.14700317382812 134.28500366210938,237.64498901367188 140.70899963378906,246.31600952148438 148.98899841308594,241.5570068359375 " opacity="0.2" id="svg_29"/>
         </g>
            <g id="svg_30">
          <path d="m163.189,126.469c0,0 -65.742,-2.046 -65.967,25.422c-0.323,39.482 37.146,91.324 37.146,91.324l14.588,-9.748c0,0 -25.677,-37.692 -25.897,-68.512c19.376,-5.47 64.985,-2.04 70.908,-18.097c4.845,-13.136 2.314,-20.389 2.314,-20.389l-33.092,0z" fill="#407BFF" id="svg_31"/>
                <path d="m163.189,126.469c0,0 -65.742,-2.046 -65.967,25.422c-0.323,39.482 37.146,91.324 37.146,91.324l14.588,-9.748c0,0 -25.677,-37.692 -25.897,-68.512c19.376,-5.47 64.985,-2.04 70.908,-18.097c4.845,-13.136 2.314,-20.389 2.314,-20.389l-33.092,0z" opacity="0.2" id="svg_32"/>
         </g>
            <polygon points="152.98098754882812,235.97601318359375 135.54299926757812,246.656005859375 130.07400512695312,241.10699462890625 149.23300170898438,229.04400634765625 " fill="#263238" id="svg_33"/>
            <path d="m142.73,256.181c0.726,-0.505 1.426,-1.214 1.9,-1.739c0.059,-0.065 0.074,-0.159 0.038,-0.24c-0.036,-0.081 -0.116,-0.132 -0.204,-0.133c-0.373,0 -3.657,0.026 -4.355,1.071c-0.162,0.242 -0.185,0.524 -0.066,0.816c0.196,0.481 0.506,0.762 0.921,0.835c0.528,0.094 1.156,-0.186 1.766,-0.61zm1.211,-1.654c-1.212,1.259 -2.278,1.935 -2.899,1.826c-0.258,-0.045 -0.449,-0.23 -0.585,-0.564c-0.063,-0.155 -0.056,-0.281 0.023,-0.398c0.376,-0.563 2.145,-0.81 3.461,-0.864z" fill="#407BFF" id="svg_34"/>
            <path d="m144.592,254.476c0.029,-0.02 0.053,-0.047 0.07,-0.078c0.036,-0.068 0.035,-0.149 -0.004,-0.216c-0.059,-0.101 -1.455,-2.486 -2.78,-2.699c-0.357,-0.057 -0.678,0.039 -0.955,0.284c-0.332,0.295 -0.431,0.657 -0.279,1.017c0.415,0.984 2.729,1.81 3.837,1.732c0.04,-0.003 0.078,-0.017 0.111,-0.04zm-3.292,-2.44c0.152,-0.106 0.318,-0.143 0.506,-0.113c0.791,0.126 1.756,1.377 2.254,2.139c-1.085,-0.102 -2.733,-0.806 -3.005,-1.452c-0.052,-0.123 -0.08,-0.292 0.164,-0.51c0.026,-0.024 0.054,-0.045 0.081,-0.064z" fill="#407BFF" id="svg_35"/>
        </g>
           <g id="svg_36">
         <polygon points="140.4290008544922,262.1940002441406 130.92599487304688,261.7439880371094 129.3699951171875,239.30899047851562 138.8730010986328,239.75799560546875 " fill="#FFB573" id="svg_37"/>
               <path d="m130.708,260.119l10.756,-0.34c0.391,-0.012 0.695,0.25 0.731,0.632l0.791,8.494c0.082,0.881 -0.72,1.743 -1.622,1.756c-3.747,0.054 -5.543,-0.11 -10.273,0.04c-2.91,0.092 -8.635,0.525 -12.624,0.023c-3.902,-0.491 -3.379,-4.435 -1.643,-4.577c4.11,-0.337 9.618,-3.177 12.255,-5.385c0.474,-0.401 1.057,-0.625 1.629,-0.643z" fill="#263238" id="svg_38"/>
               <path d="m127.367,261.894c0.884,-0.028 1.857,-0.241 2.541,-0.423c0.085,-0.022 0.149,-0.093 0.163,-0.18c0.014,-0.088 -0.025,-0.174 -0.099,-0.222c-0.313,-0.203 -3.081,-1.97 -4.236,-1.474c-0.268,0.115 -0.441,0.338 -0.5,0.648c-0.097,0.511 0.009,0.915 0.318,1.202c0.393,0.365 1.072,0.472 1.813,0.449zm1.917,-0.727c-1.702,0.395 -2.965,0.382 -3.426,-0.048c-0.191,-0.178 -0.251,-0.437 -0.184,-0.792c0.031,-0.164 0.106,-0.266 0.237,-0.321c0.622,-0.267 2.24,0.489 3.373,1.161z" fill="#407BFF" id="svg_39"/>
               <path d="m129.858,261.478c0.035,-0.001 0.07,-0.01 0.101,-0.028c0.067,-0.037 0.11,-0.106 0.114,-0.184c0.006,-0.117 0.134,-2.878 -0.862,-3.778c-0.268,-0.243 -0.59,-0.337 -0.956,-0.282c-0.439,0.067 -0.719,0.316 -0.788,0.701c-0.188,1.051 1.303,3.005 2.275,3.543c0.037,0.02 0.076,0.029 0.116,0.028zm-1.431,-3.839c0.185,-0.006 0.345,0.053 0.485,0.181c0.595,0.537 0.723,2.111 0.725,3.021c-0.855,-0.677 -1.853,-2.165 -1.73,-2.855c0.023,-0.131 0.092,-0.289 0.415,-0.338c0.037,-0.005 0.071,-0.008 0.105,-0.009z" fill="#407BFF" id="svg_40"/>
               <g id="svg_41">
          <polygon points="138.87600708007812,239.7650146484375 129.36900329589844,239.31500244140625 130.26400756835938,252.14401245117188 139.73800659179688,252.12799072265625 " opacity="0.2" id="svg_42"/>
         </g>
               <path d="m186.575,126.469c0,0 -68.787,6.504 -66.282,27.208c3.613,29.863 5.4,94.224 5.4,94.224l17.531,0.689c0,0 7.429,-58.051 3.586,-88.631c17.801,0 61.379,1.281 65.353,-9.445c3.511,-9.475 2.258,-24.046 2.258,-24.046l-27.846,0l0,0.001z" fill="#407BFF" id="svg_43"/>
               <polygon points="145.16000366210938,249.67098999023438 124.11900329589844,248.62799072265625 123.36300659179688,239.47000122070312 146.43600463867188,241.06399536132812 " fill="#263238" id="svg_44"/>
        </g>
           <g id="svg_45">
         <path d="m171.307,65.81c-0.127,1.684 -0.261,3.138 -0.452,4.684c-0.18,1.524 -0.388,3.04 -0.629,4.554c-0.469,3.03 -1.061,6.047 -1.764,9.072c-1.464,6.047 -3.247,12.089 -6.595,18.22c-0.881,1.536 -1.838,3.061 -3.085,4.586c-1.222,1.503 -2.816,3.09 -4.54,4.228c-3.483,2.356 -7.446,3.477 -11.075,3.735c-3.656,0.278 -7.082,-0.168 -10.285,-0.974c-1.603,-0.404 -3.156,-0.904 -4.663,-1.495c-0.755,-0.29 -1.495,-0.616 -2.23,-0.956c-0.758,-0.344 -1.41,-0.702 -2.25,-1.153l2.631,-6.694l1.911,0.242l2.003,0.204c1.335,0.106 2.658,0.171 3.952,0.175c2.587,0.007 5.073,-0.248 7.214,-0.826c2.147,-0.594 3.87,-1.49 5.09,-2.648c0.634,-0.598 1.091,-1.133 1.657,-1.944c0.553,-0.787 1.068,-1.804 1.58,-2.838c1.01,-2.129 1.876,-4.561 2.595,-7.109c0.756,-2.535 1.372,-5.188 1.919,-7.881c0.565,-2.689 1.019,-5.434 1.453,-8.186l0.59,-4.14c0.173,-1.357 0.371,-2.811 0.501,-4.043l14.472,1.187z" fill="#FFB573" id="svg_46"/>
               <g id="svg_47">
          <path d="m171.369,57.663c-7.033,-6.796 -15.701,-2.784 -19.159,9.942c-3.458,12.726 -3.997,20.873 -3.997,20.873l22.27,4.606c4.048,-12.146 8.088,-28.462 0.886,-35.421z" fill="#263238" id="svg_48"/>
         </g>
               <path d="m164.197,71.563c1.591,-1.437 6.115,4.984 8.872,12.925c-0.778,2.969 -1.673,5.891 -2.581,8.601l-13.396,-2.769c1.072,-7.917 3.535,-15.54 7.105,-18.757z" opacity="0.3" id="svg_49"/>
               <path d="m124.855,100.537l-4.956,-1.909l-0.218,10.611c0,0 8.403,3.634 10.113,-0.54l-0.602,-2.647c-0.517,-2.269 -2.118,-4.306 -4.337,-5.515z" fill="#FFB573" id="svg_50"/>
               <polygon points="113.95899963378906,98.90699768066406 111.00900268554688,107.81199645996094 119.68099975585938,109.23899841308594 119.89900207519531,98.62800598144531 " fill="#FFB573" id="svg_51"/>
               <path d="m121.522,105.975c-0.208,0 -0.409,-0.113 -0.512,-0.311l-8.934,-17.194c-0.146,-0.282 -0.036,-0.63 0.246,-0.777c0.283,-0.145 0.631,-0.036 0.777,0.246l8.934,17.194c0.146,0.282 0.036,0.63 -0.246,0.777c-0.085,0.044 -0.175,0.065 -0.265,0.065z" fill="#263238" id="svg_52"/>
        </g>
           <path d="m170.543,50.848l10.674,-3.045l13.727,-0.648c4.283,-0.202 8.153,2.487 9.49,6.56c2.618,7.975 5.025,19.529 6.778,29.499c1.967,11.18 2.991,27.982 3.207,43.255l-51.232,0c-1.169,-31.849 -5.223,-50.679 -7.02,-61.099c-0.724,-4.199 1.433,-8.357 5.28,-10.189l9.096,-4.333z" fill="#263238" id="svg_53"/>
           <path d="m211.208,83.216c-1.378,-7.847 -3.158,-16.684 -5.137,-23.977c-9.131,-1.543 -13.556,18.483 -10.845,28.413c2.711,9.93 17.168,3.912 17.168,3.912c-0.348,-3.013 -0.744,-5.823 -1.186,-8.348z" opacity="0.3" id="svg_54"/>
           <path d="m179.401,27.012c2.195,5.399 0.874,15.301 -3.464,12.499c-4.337,-2.801 2.124,-15.796 3.464,-12.499z" fill="#263238" id="svg_55"/>
           <path d="m176.962,30.464l-4.149,6.332l-5.646,8.63c0.387,0.202 1.25,1.556 1.745,2.555c1.031,2.078 1.884,3.633 -2.48,6.609c-0.934,0.637 -1.522,1.752 -1.31,2.862c0.257,1.348 1.603,2.658 6.313,1.826c5.455,-0.963 9.106,-3.846 11.821,-6.561c1.569,-1.569 1.209,-2.751 -0.302,-4.376c-4.283,-4.603 -5.564,-11.951 -5.992,-17.877z" fill="#FFB573" id="svg_56"/>
           <path d="m168.556,43.305l3.464,-6.151c0.071,0.153 0.153,0.33 0.236,0.507c0.271,0.66 0.542,1.485 0.742,2.356c0.636,2.733 -1.485,6.633 -3.818,8.495c-0.094,-0.177 -0.177,-0.354 -0.271,-0.53c-0.436,-0.895 -1.178,-2.074 -1.602,-2.451c-0.047,-0.047 -0.094,-0.083 -0.141,-0.106l1.39,-2.12z" opacity="0.2" id="svg_57"/>
           <path d="m147.787,23.001c-1.286,2.908 3.287,11.151 8.517,7.818c5.229,-3.333 -6.237,-12.974 -8.517,-7.818z" fill="#263238" id="svg_58"/>
           <path d="m173.007,61.052c-0.14,0 -0.263,-0.102 -0.285,-0.243c-0.387,-2.473 -1.983,-4.04 -3.834,-5.855c-2.318,-2.276 -4.947,-4.856 -5.813,-9.903c-0.026,-0.157 0.078,-0.306 0.235,-0.333c0.166,-0.03 0.307,0.079 0.333,0.235c0.834,4.863 3.392,7.374 5.648,9.589c1.843,1.81 3.583,3.518 4,6.178c0.024,0.157 -0.083,0.305 -0.24,0.33c-0.015,0.001 -0.029,0.002 -0.044,0.002z" fill="#FFFFFF" id="svg_59"/>
           <path d="m175.13,20.073c1.956,9.059 3.564,14.269 0.325,20.033c-4.871,8.67 -17.076,7.491 -21.715,-0.846c-4.175,-7.504 -6.672,-21.057 1.099,-26.908c7.657,-5.763 18.335,-1.338 20.291,7.721z" fill="#FFB573" id="svg_60"/>
           <path d="m177.821,26.293c-3.118,4.429 -11.297,-3.706 -10.631,-9.166c-8.121,4.623 -16.94,10.796 -22.294,5.594c-6.176,-6.002 -4.483,-14.599 2.754,-15.368c-1.281,2.498 5.969,3.607 9.873,-0.256c6.549,-6.481 16.896,-5.123 16.704,0.128c4.995,-1.985 10.447,9.334 3.594,19.068z" fill="#263238" id="svg_61"/>
           <path d="m173.272,8.689c1.932,-1.436 0.644,-6.565 -3.833,-8.073c4.257,0.55 8.668,3.725 3.833,8.073z" fill="#263238" id="svg_62"/>
           <path d="m180.707,25.89c0.102,2.253 -0.747,4.352 -1.893,5.712c-1.723,2.045 -4.379,0.414 -4.994,-2.137c-0.554,-2.297 0.164,-5.843 2.419,-6.941c2.223,-1.082 4.352,0.79 4.468,3.366z" fill="#FFB573" id="svg_63"/>
           <path d="m162.133,27.416c0.241,0.735 0.052,1.471 -0.422,1.645c-0.474,0.174 -1.054,-0.28 -1.295,-1.015c-0.241,-0.734 -0.052,-1.471 0.422,-1.645c0.475,-0.174 1.054,0.281 1.295,1.015z" fill="#263238" id="svg_64"/>
           <path d="m153.935,30.425c0.241,0.735 0.052,1.471 -0.422,1.645c-0.474,0.174 -1.054,-0.28 -1.295,-1.015c-0.241,-0.735 -0.052,-1.471 0.422,-1.645c0.474,-0.174 1.054,0.28 1.295,1.015z" fill="#263238" id="svg_65"/>
           <path d="m156.738,30.036c0,0 0.056,4.129 -0.762,6.497c1.47,0.535 3.092,-0.731 3.092,-0.731l-2.33,-5.766z" fill="#ED893E" id="svg_66"/>
           <path d="m161.132,39.834c2.877,-0.995 3.864,-3.345 3.908,-3.454c0.047,-0.116 -0.008,-0.248 -0.124,-0.296c-0.116,-0.048 -0.248,0.008 -0.296,0.124c-0.012,0.027 -1.133,2.704 -4.452,3.424c-0.124,0.026 -0.2,0.147 -0.173,0.27c0.026,0.122 0.147,0.2 0.27,0.173c0.306,-0.065 0.595,-0.147 0.867,-0.241z" fill="#263238" id="svg_67"/>
           <path d="m162.883,24.241c0.066,-0.035 0.123,-0.087 0.167,-0.154c0.135,-0.211 0.075,-0.492 -0.136,-0.627c-2.087,-1.34 -3.997,-0.456 -4.077,-0.418c-0.223,0.081 -0.323,0.378 -0.215,0.604c0.108,0.226 0.378,0.322 0.604,0.215c0.079,-0.036 1.558,-0.691 3.197,0.362c0.144,0.093 0.32,0.094 0.46,0.018z" fill="#263238" id="svg_68"/>
           <path d="m152.309,25.68c0.008,-0.074 -0.001,-0.151 -0.032,-0.225c-0.096,-0.231 -0.362,-0.342 -0.593,-0.245c-2.291,0.951 -2.653,3.025 -2.667,3.112c-0.061,0.229 0.126,0.48 0.374,0.521c0.247,0.04 0.48,-0.127 0.521,-0.374c0.016,-0.086 0.32,-1.674 2.119,-2.421c0.159,-0.066 0.26,-0.21 0.278,-0.368z" fill="#263238" id="svg_69"/>
           <g id="svg_70">
         <path d="m202.669,54.025c0.964,1.618 1.801,3.072 2.629,4.634c0.825,1.538 1.628,3.085 2.413,4.644c1.584,3.111 3.016,6.307 4.384,9.566c1.33,3.275 2.583,6.618 3.625,10.125c1.018,3.52 1.923,7.154 2.268,11.254c0.153,2.057 0.187,4.24 -0.226,6.704c-0.186,1.143 -0.584,2.738 -1.327,4.212c-0.724,1.483 -1.812,2.88 -3.051,3.941c-1.239,1.078 -2.586,1.822 -3.862,2.34c-1.283,0.52 -2.513,0.828 -3.677,1.027c-2.33,0.398 -4.427,0.33 -6.409,0.174c-1.981,-0.164 -3.852,-0.494 -5.66,-0.915c-1.808,-0.412 -3.555,-0.91 -5.259,-1.483c-3.431,-1.142 -6.616,-2.475 -9.86,-4.172l2.536,-6.73c6.216,1.175 12.897,2.268 18.502,1.925c1.375,-0.082 2.66,-0.321 3.623,-0.622c0.971,-0.301 1.513,-0.749 1.472,-0.888c-0.008,-0.08 -0.06,-0.048 -0.085,-0.096c-0.027,-0.052 -0.031,-0.109 0.024,-0.627c0.073,-0.867 0.006,-2.073 -0.195,-3.355c-0.394,-2.59 -1.208,-5.496 -2.233,-8.375c-1.023,-2.894 -2.208,-5.825 -3.526,-8.729c-1.28,-2.922 -2.714,-5.812 -4.144,-8.712c-0.724,-1.446 -1.467,-2.885 -2.228,-4.311l-2.261,-4.187l12.527,-7.344z" fill="#FFB573" id="svg_71"/>
               <g id="svg_72">
          <path d="m197.984,47.313c-9.669,-1.47 -14.414,6.819 -9.867,19.198c4.547,12.378 8.824,19.334 8.824,19.334l20.826,-9.136c-3.732,-12.249 -9.883,-27.891 -19.783,-29.396z" fill="#263238" id="svg_73"/>
         </g>
               <path d="m175.844,98.386l-4.467,1.345l6.329,8.989c0,0 9.386,-3.361 7.464,-7.441l-2.359,-1.343c-2.022,-1.153 -4.578,-2.369 -6.967,-1.55z" fill="#FFB573" id="svg_74"/>
               <polygon points="167.4320068359375,105.927001953125 171.89898681640625,110.39300537109375 177.70599365234375,108.72000122070312 171.37701416015625,99.73100280761719 " fill="#FFB573" id="svg_75"/>
        </g>
       </g>
      </g>
     </g>
    </g>
       <g id="svg_76">
     <ellipse cx="177.179" cy="27.012" rx="1.436" ry="1.74" fill="#FFFFFF" id="svg_77"/>
           <polygon points="178.37298583984375,31.61199951171875 177.53900146484375,31.583999633789062 177.02801513671875,27.572998046875 178.614990234375,27.216995239257812 " fill="#FFFFFF" id="svg_78"/>
           <path d="m184.115,107.197c-3.034,0 -5.66,-0.442 -7.278,-1.902c-1.155,-1.042 -1.741,-2.559 -1.741,-4.508c0,-4.816 1,-8.723 1.882,-12.168c1.396,-5.449 2.497,-9.753 -0.846,-15.056c-5.316,-8.434 -3.734,-20.225 -0.014,-27.61c2.851,-5.655 1.882,-11.914 1.518,-14.27c-0.048,-0.308 -0.084,-0.545 -0.101,-0.701c-0.016,-0.159 0.1,-0.3 0.258,-0.316c0.153,-0.009 0.3,0.1 0.316,0.258c0.015,0.15 0.05,0.378 0.096,0.672c0.372,2.406 1.361,8.798 -1.571,14.618c-3.65,7.245 -5.212,18.799 -0.014,27.044c3.475,5.512 2.289,10.143 0.916,15.505c-0.874,3.413 -1.864,7.281 -1.864,12.025c0,1.805 0.507,3.139 1.551,4.08c2.693,2.43 8.655,1.813 14.422,1.218c2.577,-0.267 5.242,-0.542 7.594,-0.542c0.159,0 0.288,0.129 0.288,0.288c0,0.159 -0.129,0.288 -0.288,0.288c-2.322,0 -4.972,0.275 -7.534,0.539c-2.589,0.267 -5.214,0.538 -7.59,0.538z" fill="#FFFFFF" id="svg_79"/>
           <path d="m211.221,105.062l-11.383,0c-0.332,0 -0.6,0.269 -0.6,0.6l0,0.801c0,0.332 0.269,0.6 0.6,0.6l11.383,0c0.332,0 0.6,-0.269 0.6,-0.6l0,-0.801c0.001,-0.331 -0.268,-0.6 -0.6,-0.6z" fill="#FFFFFF" id="svg_80"/>
    </g>
   </g>
  </g>
     <g id="Desk">
   <g id="svg_81">
    <g id="svg_82">
     <g id="svg_83">
      <path d="m282.639,113.724l-277.278,0c-1.832,0 -3.33,-1.499 -3.33,-3.33l0,0c0,-1.831 1.498,-3.33 3.33,-3.33l277.278,0c1.832,0 3.33,1.498 3.33,3.33l0,0c0,1.831 -1.498,3.33 -3.33,3.33z" fill="#407BFF" id="svg_84"/>
         <path d="m282.639,113.724l-64.911,0c-1.831,0 -3.33,-1.499 -3.33,-3.33l0,0c0,-1.831 1.499,-3.33 3.33,-3.33l64.911,0c1.832,0 3.33,1.498 3.33,3.33l0,0c0,1.831 -1.498,3.33 -3.33,3.33z" opacity="0.3" fill="#263238" id="svg_85"/>
     </g>
        <g id="svg_86">
      <g id="svg_87">
       <polygon points="279.5820007324219,270.62200927734375 285.968994140625,270.62200927734375 278.61700439453125,113.7239990234375 269.7799987792969,113.7239990234375 " fill="#263238" id="svg_88"/>
          <polygon points="279.5820007324219,270.62200927734375 285.968994140625,270.62200927734375 278.61700439453125,113.7239990234375 269.7799987792969,113.7239990234375 " opacity="0.1" fill="#FFFFFF" id="svg_89"/>
      </g>
            <g id="svg_90">
       <polygon points="220.78500366210938,270.62200927734375 214.39801025390625,270.62200927734375 221.75,113.7239990234375 230.5880126953125,113.7239990234375 " fill="#263238" id="svg_91"/>
                <polygon points="220.78500366210938,270.62200927734375 214.39801025390625,270.62200927734375 221.75,113.7239990234375 230.5880126953125,113.7239990234375 " opacity="0.2" fill="#FFFFFF" id="svg_92"/>
      </g>
            <g id="svg_93">
       <polygon points="67.21499633789062,270.62200927734375 73.60200500488281,270.62200927734375 66.25,113.7239990234375 57.41200256347656,113.7239990234375 " fill="#263238" id="svg_94"/>
                <polygon points="67.21499633789062,270.62200927734375 73.60200500488281,270.62200927734375 66.25,113.7239990234375 57.41200256347656,113.7239990234375 " opacity="0.1" fill="#FFFFFF" id="svg_95"/>
      </g>
            <g id="svg_96">
       <polygon points="8.417999267578125,270.62200927734375 2.0309982299804688,270.62200927734375 9.383003234863281,113.7239990234375 18.220001220703125,113.7239990234375 " fill="#263238" id="svg_97"/>
                <polygon points="8.417999267578125,270.62200927734375 2.0309982299804688,270.62200927734375 9.383003234863281,113.7239990234375 18.220001220703125,113.7239990234375 " opacity="0.2" fill="#FFFFFF" id="svg_98"/>
      </g>
            <g id="svg_99">
       <rect x="11.245" y="122.07" width="213.253" height="13.149" fill="#263238" id="svg_100"/>
                <rect x="11.245" y="122.07" width="213.253" height="13.149" opacity="0.2" fill="#FFFFFF" id="svg_101"/>
      </g>
     </g>
    </g>
       <g id="svg_102">
     <g id="svg_103">
      <path d="m46.329,98.215c-0.772,0 -1.399,0.626 -1.399,1.399l0,6.051c0,0.772 0.626,1.399 1.399,1.399l45.353,0c0.252,0 0.456,-0.204 0.456,-0.456l0,-7.937c0,-0.252 -0.204,-0.456 -0.456,-0.456l-45.353,0z" fill="#407BFF" id="svg_104"/>
         <path d="m92.138,99.058l-18.967,0c-0.446,0 -0.807,0.362 -0.807,0.807l0,5.547c0,0.446 0.361,0.807 0.807,0.807l18.967,0l0,-7.161z" opacity="0.9" fill="#FFFFFF" id="svg_105"/>
         <g id="svg_106">
       <path d="m70.044,98.215l-45.809,0c-0.772,0 -1.399,0.626 -1.399,1.399l0,6.051c0,0.772 0.626,1.399 1.399,1.399l45.809,0c0.772,0 1.399,-0.626 1.399,-1.399l0,-6.051c0,-0.772 -0.627,-1.399 -1.399,-1.399z" fill="#407BFF" id="svg_107"/>
             <path d="m70.044,98.215l-45.809,0c-0.772,0 -1.399,0.626 -1.399,1.399l0,6.051c0,0.772 0.626,1.399 1.399,1.399l45.809,0c0.772,0 1.399,-0.626 1.399,-1.399l0,-6.051c0,-0.772 -0.627,-1.399 -1.399,-1.399z" opacity="0.2" id="svg_108"/>
             <path d="m47.514,98.215l-6.944,0c-0.315,0 -0.57,0.255 -0.57,0.57l0,7.707c0,0.315 0.255,0.571 0.57,0.571l6.944,0c0.315,0 0.57,-0.256 0.57,-0.571l0,-7.707c0,-0.314 -0.255,-0.57 -0.57,-0.57z" opacity="0.5" fill="#407BFF" id="svg_109"/>
             <path d="m57.552,98.215l-6.944,0c-0.315,0 -0.57,0.255 -0.57,0.57l0,7.707c0,0.315 0.255,0.571 0.57,0.571l6.944,0c0.315,0 0.57,-0.256 0.57,-0.571l0,-7.707c0,-0.314 -0.255,-0.57 -0.57,-0.57z" opacity="0.5" fill="#407BFF" id="svg_110"/>
      </g>
     </g>
           <g id="svg_111">
      <path d="m38.128,87.324c-0.773,0 -1.399,0.626 -1.399,1.399l0,8.094c0,0.773 0.626,1.399 1.399,1.399l49.129,0c0.252,0 0.456,-0.204 0.456,-0.456l0,-9.98c0,-0.252 -0.204,-0.456 -0.456,-0.456l-49.129,0z" fill="#407BFF" id="svg_112"/>
               <path d="m87.712,88.167l-22.742,0c-0.446,0 -0.807,0.361 -0.807,0.807l0,7.591c0,0.446 0.362,0.807 0.807,0.807l22.743,0l0,-9.205l-0.001,0z" opacity="0.9" fill="#FFFFFF" id="svg_113"/>
               <g id="svg_114">
       <path d="m61.843,87.324l-38.524,0c-0.773,0 -1.399,0.626 -1.399,1.399l0,8.094c0,0.772 0.626,1.399 1.399,1.399l38.524,0c0.772,0 1.399,-0.626 1.399,-1.399l0,-8.094c0,-0.773 -0.627,-1.399 -1.399,-1.399z" fill="#407BFF" id="svg_115"/>
                   <path d="m61.843,87.324l-38.524,0c-0.773,0 -1.399,0.626 -1.399,1.399l0,8.094c0,0.772 0.626,1.399 1.399,1.399l38.524,0c0.772,0 1.399,-0.626 1.399,-1.399l0,-8.094c0,-0.773 -0.627,-1.399 -1.399,-1.399z" opacity="0.2" fill="#FFFFFF" id="svg_116"/>
                   <path d="m58.231,89.484l-28.206,0c-0.471,0 -0.852,0.382 -0.852,0.852l0,4.866c0,0.471 0.382,0.852 0.852,0.852l28.206,0c0.471,0 0.852,-0.382 0.852,-0.852l0,-4.866c0,-0.47 -0.382,-0.852 -0.852,-0.852z" opacity="0.6" fill="#407BFF" id="svg_117"/>
      </g>
     </g>
           <g id="svg_118">
      <path d="m52.542,82.106c-0.772,0 -1.399,0.369 -1.399,0.825l0,3.568c0,0.456 0.626,0.825 1.399,0.825l45.353,0c0.252,0 0.456,-0.12 0.456,-0.269l0,-4.68c0,-0.148 -0.204,-0.269 -0.456,-0.269l-45.353,0z" fill="#407BFF" id="svg_119"/>
               <path d="m98.351,82.604l-19.154,0c-0.342,0 -0.62,0.277 -0.62,0.62l0,2.983c0,0.342 0.278,0.62 0.62,0.62l19.154,0l0,-4.223z" opacity="0.9" fill="#FFFFFF" id="svg_120"/>
               <g id="svg_121">
       <path d="m76.581,82.106l-46.458,0c-0.593,0 -1.074,0.481 -1.074,1.074l0,3.069c0,0.593 0.481,1.074 1.074,1.074l46.458,0c0.593,0 1.074,-0.481 1.074,-1.074l0,-3.069c0.001,-0.593 -0.48,-1.074 -1.074,-1.074z" fill="#407BFF" id="svg_122"/>
                   <path d="m76.581,82.106l-46.458,0c-0.593,0 -1.074,0.481 -1.074,1.074l0,3.069c0,0.593 0.481,1.074 1.074,1.074l46.458,0c0.593,0 1.074,-0.481 1.074,-1.074l0,-3.069c0.001,-0.593 -0.48,-1.074 -1.074,-1.074z" opacity="0.2" id="svg_123"/>
                   <path d="m35.962,82.106l-1.451,0c-0.116,0 -0.211,0.094 -0.211,0.211l0,4.796c0,0.116 0.094,0.211 0.211,0.211l1.451,0c0.116,0 0.211,-0.094 0.211,-0.211l0,-4.796c0,-0.116 -0.095,-0.211 -0.211,-0.211z" opacity="0.5" fill="#407BFF" id="svg_124"/>
                   <path d="m73.684,82.106l-1.424,0c-0.115,0 -0.209,0.094 -0.209,0.209l0,4.799c0,0.115 0.094,0.209 0.209,0.209l1.424,0c0.116,0 0.209,-0.094 0.209,-0.209l0,-4.799c0,-0.115 -0.093,-0.209 -0.209,-0.209z" opacity="0.5" fill="#407BFF" id="svg_125"/>
      </g>
     </g>
           <g id="svg_126">
      <path d="m44.341,74.567c-0.773,0 -1.399,0.369 -1.399,0.825l0,5.89c0,0.456 0.626,0.825 1.399,0.825l49.129,0c0.252,0 0.456,-0.12 0.456,-0.269l0,-7.002c0,-0.148 -0.204,-0.269 -0.456,-0.269l-49.129,0z" fill="#407BFF" id="svg_127"/>
               <path d="m93.925,75.064l-22.93,0c-0.342,0 -0.62,0.277 -0.62,0.62l0,5.306c0,0.342 0.278,0.62 0.62,0.62l22.93,0l0,-6.546z" opacity="0.9" fill="#FFFFFF" id="svg_128"/>
               <g id="svg_129">
       <path d="m68.381,74.567l-39.174,0c-0.593,0 -1.074,0.481 -1.074,1.074l0,5.391c0,0.593 0.481,1.074 1.074,1.074l39.174,0c0.593,0 1.074,-0.481 1.074,-1.074l0,-5.391c0,-0.593 -0.481,-1.074 -1.074,-1.074z" fill="#407BFF" id="svg_130"/>
                   <path d="m68.381,74.567l-39.174,0c-0.593,0 -1.074,0.481 -1.074,1.074l0,5.391c0,0.593 0.481,1.074 1.074,1.074l39.174,0c0.593,0 1.074,-0.481 1.074,-1.074l0,-5.391c0,-0.593 -0.481,-1.074 -1.074,-1.074z" opacity="0.1" id="svg_131"/>
      </g>
     </g>
    </g>
       <path d="m153.919,105.398l-41.274,0c-0.458,0 -0.833,0.375 -0.833,0.832l0,0c0,0.458 0.375,0.833 0.833,0.833l41.274,0c0.458,0 0.832,-0.375 0.832,-0.833l0,0c0.001,-0.457 -0.374,-0.832 -0.832,-0.832z" fill="#FFFFFF" id="svg_132"/>
       <g id="svg_133">
     <polygon points="234.66000366210938,103.41900634765625 261.77899169921875,103.41900634765625 264.2300109863281,106.96600341796875 232.20999145507812,106.96600341796875 " fill="#263238" id="svg_134"/>
           <path d="m276.539,42.833c0,2.015 -1.633,3.648 -3.648,3.648c-2.015,0 -3.648,-1.633 -3.648,-3.648c0,-2.015 1.633,-3.648 3.648,-3.648c2.015,0 3.648,1.633 3.648,3.648z" id="svg_135"/>
           <path d="m249.116,105.819c-0.149,0 -0.301,-0.029 -0.447,-0.092c-0.587,-0.247 -0.861,-0.924 -0.613,-1.51l26.128,-61.833c0.247,-0.587 0.921,-0.864 1.51,-0.613c0.587,0.247 0.861,0.924 0.613,1.51l-26.128,61.833c-0.187,0.441 -0.613,0.705 -1.063,0.705z" fill="#263238" id="svg_136"/>
           <path d="m275.243,43.985c-0.24,0 -0.483,-0.074 -0.69,-0.229l-47.455,-35.571c-0.51,-0.383 -0.613,-1.105 -0.23,-1.614c0.38,-0.509 1.103,-0.613 1.613,-0.231l47.455,35.572c0.51,0.382 0.613,1.104 0.23,1.613c-0.225,0.301 -0.572,0.46 -0.923,0.46z" fill="#263238" id="svg_137"/>
           <path d="m278.893,42.833c0,2.015 -1.634,3.648 -3.648,3.648s-3.648,-1.633 -3.648,-3.648c0,-2.015 1.633,-3.648 3.648,-3.648s3.648,1.633 3.648,3.648z" fill="#263238" id="svg_138"/>
           <g id="svg_139">
      <circle cx="227.79" cy="7.261" r="3.64" fill="#263238" id="svg_140"/>
               <g id="svg_141">
       <path d="m222.688,23.896c-3.185,3.185 -8.348,3.185 -11.533,0c-3.185,-3.185 -3.185,-8.349 0,-11.533c3.185,-3.185 8.349,-3.185 11.533,0c3.185,3.184 3.185,8.348 0,11.533z" fill="#407BFF" id="svg_142"/>
                   <path d="m222.688,23.896c-3.185,3.185 -8.348,3.185 -11.533,0c-3.185,-3.185 -3.185,-8.349 0,-11.533c3.185,-3.185 8.349,-3.185 11.533,0c3.185,3.184 3.185,8.348 0,11.533z" opacity="0.7" fill="#FFFFFF" id="svg_143"/>
      </g>
               <path d="m227.79,7.261c-6.828,-6.828 -17.897,-6.827 -24.724,0l24.724,24.724c6.827,-6.827 6.827,-17.896 0,-24.724z" fill="#263238" id="svg_144"/>
     </g>
    </g>
       <g opacity="0.2" id="svg_145">
     <polygon points="203.06500244140625,7.261993408203125 99.23599243164062,107.06399536132812 205.74798583984375,107.06399536132812 227.79000854492188,31.985992431640625 " fill="#407BFF" id="svg_146"/>
           <polygon points="203.06500244140625,7.261993408203125 99.23599243164062,107.06399536132812 205.74798583984375,107.06399536132812 227.79000854492188,31.985992431640625 " opacity="0.7" fill="#FFFFFF" id="svg_147"/>
    </g>
   </g>
  </g>
 </g>

</svg>